<svg width="130" height="33" viewBox="0 0 130 33" fill="none" xmlns="http://www.w3.org/2000/svg">
<path d="M94.5827 32.2915V0H89.2395V23.7381L71.1085 0H65.6914V32.2915H71.0346V8.1943L89.1656 32.2915H94.5827Z" fill="#1A1A1A"/>
<path d="M47.6239 0H34.9629V32.3443H47.6239C56.5363 32.3443 63.8013 25.0898 63.8013 16.1774C63.7908 7.25449 56.5363 0 47.6239 0ZM48.0991 26.7899H39.7359V5.55439H48.0991C53.9597 5.55439 58.7221 10.3168 58.7221 16.1774C58.7221 22.0275 53.9597 26.7899 48.0991 26.7899Z" fill="#1A1A1A"/>
<path d="M0 16.3253C0 25.3327 7.32841 32.6505 16.3253 32.6505C25.3327 32.6505 32.6505 25.3221 32.6505 16.3253V14.0972H17.8986V17.9831H27.5819L27.5502 18.1521C27.1172 20.792 25.7656 23.1996 23.7276 24.9525C21.6684 26.716 19.0391 27.698 16.3253 27.698C10.0528 27.698 4.95249 22.5977 4.95249 16.3253C4.95249 10.0528 10.0528 4.95249 16.3253 4.95249C19.3348 4.95249 22.1542 6.11405 24.2978 8.21543L27.8775 4.78353C24.7835 1.70011 20.697 0 16.3253 0C7.32841 0 0 7.32841 0 16.3253Z" fill="#1A1A1A"/>
<path d="M100.695 23.9599H101.984L105.151 32.3337H103.684L102.786 30.0634H99.8927C99.6076 30.8659 99.2697 31.5523 98.9951 32.3337H97.5273L100.695 23.9599ZM100.357 28.754H102.321C101.962 27.7403 101.73 27.1384 101.339 26.0296L100.357 28.754Z" fill="#1A1A1A"/>
<path d="M108.816 28.8068H107.254V32.3337H105.881V23.9599H109.418C110.833 23.9599 111.963 24.9736 111.963 26.3886C111.963 27.4868 111.256 28.3105 110.274 28.659L112.1 32.3337H110.612L108.816 28.8068ZM107.243 25.2799V27.4974H109.408C110.094 27.4974 110.643 27.075 110.643 26.3992C110.643 25.7128 110.094 25.2904 109.408 25.2904H107.243V25.2799Z" fill="#1A1A1A"/>
<path d="M97.5176 3.63253H126.367V32.3443H129.999V0H97.5176V3.63253Z" fill="#1A1A1A"/>
<path d="M97.5176 16.3886H113.611V32.3443H117.254V12.7561H97.5176V16.3886Z" fill="#1A1A1A"/>
<path d="M123.621 32.3443V6.37802H97.5176V10.0105H119.989V32.3443H123.621Z" fill="#1A1A1A"/>
</svg>
